<mxfile host="65bd71144e">
    <diagram id="9Xw4R1c61-o4Ur6VGg6g" name="Page-1">
        <mxGraphModel dx="1347" dy="689" grid="1" gridSize="10" guides="1" tooltips="1" connect="1" arrows="1" fold="1" page="1" pageScale="1" pageWidth="850" pageHeight="1100" math="0" shadow="0">
            <root>
                <mxCell id="0"/>
                <mxCell id="1" parent="0"/>
                <mxCell id="2" value="Start" style="rounded=1;whiteSpace=wrap;html=1;" parent="1" vertex="1">
                    <mxGeometry x="330" y="40" width="120" height="60" as="geometry"/>
                </mxCell>
                <mxCell id="3" value="height &amp;gt; 120" style="rhombus;whiteSpace=wrap;html=1;" parent="1" vertex="1">
                    <mxGeometry x="320" y="150" width="140" height="80" as="geometry"/>
                </mxCell>
                <mxCell id="4" value="" style="endArrow=classic;html=1;entryX=0.5;entryY=0;entryDx=0;entryDy=0;exitX=0.5;exitY=1;exitDx=0;exitDy=0;" parent="1" source="2" target="3" edge="1">
                    <mxGeometry width="50" height="50" relative="1" as="geometry">
                        <mxPoint x="520" y="130" as="sourcePoint"/>
                        <mxPoint x="450" y="170" as="targetPoint"/>
                    </mxGeometry>
                </mxCell>
                <mxCell id="6" value="" style="edgeStyle=segmentEdgeStyle;endArrow=classic;html=1;curved=0;rounded=0;endSize=8;startSize=8;" parent="1" edge="1">
                    <mxGeometry width="50" height="50" relative="1" as="geometry">
                        <mxPoint x="460" y="190" as="sourcePoint"/>
                        <mxPoint x="550" y="250" as="targetPoint"/>
                        <Array as="points">
                            <mxPoint x="550" y="190"/>
                            <mxPoint x="550" y="250"/>
                        </Array>
                    </mxGeometry>
                </mxCell>
                <mxCell id="8" value="" style="edgeStyle=segmentEdgeStyle;endArrow=classic;html=1;curved=0;rounded=0;endSize=8;startSize=8;" parent="1" source="3" edge="1">
                    <mxGeometry width="50" height="50" relative="1" as="geometry">
                        <mxPoint x="240" y="190" as="sourcePoint"/>
                        <mxPoint x="250" y="250" as="targetPoint"/>
                        <Array as="points">
                            <mxPoint x="250" y="190"/>
                        </Array>
                    </mxGeometry>
                </mxCell>
                <mxCell id="9" value="Can't Ride" style="rounded=1;whiteSpace=wrap;html=1;" parent="1" vertex="1">
                    <mxGeometry x="190" y="250" width="120" height="60" as="geometry"/>
                </mxCell>
                <mxCell id="11" value="Can Ride" style="rounded=1;whiteSpace=wrap;html=1;" parent="1" vertex="1">
                    <mxGeometry x="490" y="250" width="120" height="60" as="geometry"/>
                </mxCell>
                <mxCell id="12" value="Yes" style="text;html=1;align=center;verticalAlign=middle;resizable=0;points=[];autosize=1;strokeColor=none;fillColor=none;" parent="1" vertex="1">
                    <mxGeometry x="260" y="155" width="40" height="30" as="geometry"/>
                </mxCell>
                <mxCell id="13" value="No" style="text;html=1;align=center;verticalAlign=middle;resizable=0;points=[];autosize=1;strokeColor=none;fillColor=none;" parent="1" vertex="1">
                    <mxGeometry x="470" y="155" width="40" height="30" as="geometry"/>
                </mxCell>
                <mxCell id="14" value="" style="endArrow=classic;html=1;exitX=0.5;exitY=1;exitDx=0;exitDy=0;" edge="1" parent="1">
                    <mxGeometry width="50" height="50" relative="1" as="geometry">
                        <mxPoint x="549.5" y="310" as="sourcePoint"/>
                        <mxPoint x="549.5" y="360" as="targetPoint"/>
                    </mxGeometry>
                </mxCell>
                <mxCell id="15" value="age" style="rhombus;whiteSpace=wrap;html=1;" vertex="1" parent="1">
                    <mxGeometry x="480" y="360" width="140" height="80" as="geometry"/>
                </mxCell>
                <mxCell id="17" value="" style="edgeStyle=segmentEdgeStyle;endArrow=classic;html=1;curved=0;rounded=0;endSize=8;startSize=8;" edge="1" parent="1">
                    <mxGeometry width="50" height="50" relative="1" as="geometry">
                        <mxPoint x="480" y="400" as="sourcePoint"/>
                        <mxPoint x="410" y="460" as="targetPoint"/>
                        <Array as="points">
                            <mxPoint x="410" y="400"/>
                        </Array>
                    </mxGeometry>
                </mxCell>
                <mxCell id="18" value="" style="edgeStyle=segmentEdgeStyle;endArrow=classic;html=1;curved=0;rounded=0;endSize=8;startSize=8;" edge="1" parent="1">
                    <mxGeometry width="50" height="50" relative="1" as="geometry">
                        <mxPoint x="620" y="400" as="sourcePoint"/>
                        <mxPoint x="710" y="460" as="targetPoint"/>
                        <Array as="points">
                            <mxPoint x="710" y="400"/>
                            <mxPoint x="710" y="460"/>
                        </Array>
                    </mxGeometry>
                </mxCell>
                <mxCell id="19" value="$7" style="rounded=1;whiteSpace=wrap;html=1;" vertex="1" parent="1">
                    <mxGeometry x="350" y="460" width="120" height="60" as="geometry"/>
                </mxCell>
                <mxCell id="20" value="$12" style="rounded=1;whiteSpace=wrap;html=1;" vertex="1" parent="1">
                    <mxGeometry x="650" y="460" width="120" height="60" as="geometry"/>
                </mxCell>
                <mxCell id="21" value="18 or under" style="text;html=1;align=center;verticalAlign=middle;resizable=0;points=[];autosize=1;strokeColor=none;fillColor=none;" vertex="1" parent="1">
                    <mxGeometry x="395" y="360" width="80" height="30" as="geometry"/>
                </mxCell>
                <mxCell id="22" value="Over 18" style="text;html=1;align=center;verticalAlign=middle;resizable=0;points=[];autosize=1;strokeColor=none;fillColor=none;" vertex="1" parent="1">
                    <mxGeometry x="620" y="360" width="70" height="30" as="geometry"/>
                </mxCell>
            </root>
        </mxGraphModel>
    </diagram>
</mxfile>